<?xml version="1.0" encoding="UTF-8" standalone="no"?>
<svg width="512" height="512" viewBox="0 0 512 512" fill="none" xmlns="http://www.w3.org/2000/svg">
  <!-- Background -->
  <rect width="512" height="512" rx="100" fill="#1d4ed8"/>
  
  <!-- Arrow down icon -->
  <path d="M256 352c-5.3 0-10.6-2.1-14.4-6.2l-96-104c-7.1-7.7-6.7-19.8 1-26.9 7.7-7.1 19.8-6.7 26.9 1l82.5 89.3 82.5-89.3c7.1-7.7 19.2-8.1 26.9-1 7.7 7.1 8.1 19.2 1 26.9l-96 104C266.6 349.9 261.3 352 256 352z" fill="white"/>
  
  <!-- Cloud icon -->
  <path d="M396 224c-3.2-43.7-39.3-78-84-78-31.3 0-58.9 17-73.2 42.2-10.9-6.9-23.6-11.2-37.3-11.2-37.3 0-68 29.1-70.3 65.8-20.5 7.2-35.2 26.7-35.2 49.6 0 29.1 23.6 52.6 52.6 52.6h226.2c29.1 0 52.6-23.6 52.6-52.6 0-26.7-19.9-48.5-45.9-52.1" fill="white"/>
  
  <!-- TikTok icon -->
  <path d="M122 129h44v140c0 6.6-5.4 12-12 12h-20c-6.6 0-12-5.4-12-12V129z" fill="white"/>
  <path d="M186 129h44v140c0 6.6-5.4 12-12 12h-20c-6.6 0-12-5.4-12-12V129z" fill="white"/>
  <path d="M100 161h152v44H100v-44z" fill="white"/>
</svg>